<?xml version="1.0" encoding="utf-8"?>
<!-- Generator: Adobe Illustrator 15.0.0, SVG Export Plug-In  -->
<!DOCTYPE svg PUBLIC "-//W3C//DTD SVG 1.1//EN" "http://www.w3.org/Graphics/SVG/1.1/DTD/svg11.dtd" [
	<!ENTITY ns_flows "http://ns.adobe.com/Flows/1.0/">
]>
<svg version="1.1"
	xmlns="http://www.w3.org/2000/svg" xmlns:xlink="http://www.w3.org/1999/xlink" xmlns:a="http://ns.adobe.com/AdobeSVGViewerExtensions/3.0/"
	x="0px" y="0px" width="92px" height="92px" viewBox="-3.1 -2.67 92 92" enable-background="new -3.1 -2.67 92 92"
	xml:space="preserve">
<defs>
</defs>
<g id="XMLID_3_">
	<g>
		<path fill="#FFFFFF" d="M43.33,1.5c23.11,0,41.839,18.73,41.839,41.83c0,23.1-18.729,41.83-41.839,41.83
			c-23.1,0-41.83-18.73-41.83-41.83C1.5,20.23,20.23,1.5,43.33,1.5z"/>
	</g>
	<g>
		<path fill="none" stroke="#000000" stroke-width="3" stroke-miterlimit="10" d="M85.169,43.33c0,23.1-18.729,41.83-41.839,41.83
			c-23.1,0-41.83-18.73-41.83-41.83C1.5,20.23,20.23,1.5,43.33,1.5C66.44,1.5,85.169,20.23,85.169,43.33z"/>
	</g>
</g>
    <g id="XMLID_2_">
        <g transform="translate(-2.500000,88.000000) scale(0.030667,-0.030667)"
            fill="#000000" stroke="none">
            <path d="M925 2258 c-3 -7 -4 -341 -3 -743 l3 -730 565 0 565 0 0 740 0 740
            -563 3 c-445 2 -564 0 -567 -10z m671 -141 c26 -6 137 -58 144 -67 3 -3 17
            -15 32 -26 32 -25 86 -95 110 -144 18 -37 50 -159 43 -169 -2 -4 -5 -31 -6
            -61 -5 -94 -50 -191 -123 -265 l-40 -40 -100 103 c-109 110 -122 116 -191 88
            -32 -14 -65 -59 -65 -89 0 -11 51 -126 80 -179 8 -14 5 -16 -23 -12 -120 14
            -231 69 -290 142 -10 12 -24 28 -31 35 -14 14 -65 119 -73 151 -3 11 -6 57 -8
            100 -7 189 108 352 297 421 50 18 79 22 143 20 44 -2 90 -5 101 -8z m104 -819
            c98 -100 176 -187 174 -193 -3 -5 -36 -30 -74 -55 -38 -25 -70 -48 -70 -52 0
            -5 -10 -8 -22 -8 -18 1 -29 14 -53 67 -16 37 -42 92 -56 122 -127 273 -125
            267 -109 286 7 8 17 15 23 15 6 0 90 -82 187 -182z m-565 -270 c32 -14 43 -51
            32 -107 -7 -35 -52 -56 -101 -47 -26 5 -38 15 -50 41 -39 82 34 152 119 113z"/>
            <path d="M1454 1783 c-32 -6 -52 -33 -60 -79 -5 -36 -3 -45 22 -73 31 -35 67
            -42 117 -22 56 22 66 110 17 154 -29 26 -48 30 -96 20z"/>
        </g>
    </g>
</svg>

