<?xml version="1.0" encoding="utf-8"?>
<!-- Generator: Adobe Illustrator 15.0.0, SVG Export Plug-In  -->
<!DOCTYPE svg PUBLIC "-//W3C//DTD SVG 1.1//EN" "http://www.w3.org/Graphics/SVG/1.1/DTD/svg11.dtd" [
	<!ENTITY ns_flows "http://ns.adobe.com/Flows/1.0/">
]>
<svg version="1.1"
	 xmlns="http://www.w3.org/2000/svg" xmlns:xlink="http://www.w3.org/1999/xlink" xmlns:a="http://ns.adobe.com/AdobeSVGViewerExtensions/3.0/"
	 x="0px" y="0px" width="92px" height="92px" viewBox="-3.1 -2.67 92 92" enable-background="new -3.1 -2.67 92 92"
	 xml:space="preserve">
<defs>
</defs>
<g id="XMLID_3_">
	<g>
		<path fill="#FFFFFF" d="M43.33,1.5c23.11,0,41.839,18.73,41.839,41.83c0,23.1-18.729,41.83-41.839,41.83
			c-23.1,0-41.83-18.73-41.83-41.83C1.5,20.23,20.23,1.5,43.33,1.5z"/>
	</g>
	<g>
		<path fill="none" stroke="#000000" stroke-width="3" stroke-miterlimit="10" d="M85.169,43.33c0,23.1-18.729,41.83-41.839,41.83
			c-23.1,0-41.83-18.73-41.83-41.83C1.5,20.23,20.23,1.5,43.33,1.5C66.44,1.5,85.169,20.23,85.169,43.33z"/>
	</g>
</g>
<g id="XMLID_2_">
<g transform="translate(-2.500000,88.000000) scale(0.030667,-0.030667)"
fill="#000000" stroke="none">
<path d="M800 2260 c-47 -47 -8 -110 67 -110 48 0 43 9 62 -117 17 -116 64
-234 131 -333 37 -54 136 -155 175 -178 l20 -12 -20 -12 c-65 -38 -164 -152
-217 -248 -49 -91 -98 -246 -98 -317 0 -51 -9 -63 -47 -63 -81 0 -122 -61 -73
-110 20 -20 33 -20 694 -20 l675 0 20 26 c27 34 26 50 -4 79 -18 19 -35 25
-70 25 l-45 0 0 40 c0 62 -47 226 -91 315 -44 92 -125 194 -193 244 -25 19
-46 37 -45 40 0 3 27 28 60 54 63 51 136 141 174 217 42 83 90 249 98 335 2
28 5 30 49 33 37 2 52 9 68 29 25 32 25 44 -1 77 l-20 26 -675 0 c-661 0 -674
0 -694 -20z m1180 -122 c0 -7 -7 -46 -15 -86 -48 -228 -164 -399 -322 -473
-111 -52 -111 -87 -1 -138 127 -59 233 -188 288 -351 21 -62 50 -181 50 -207
0 -10 -104 -13 -485 -13 l-485 0 0 28 c0 31 25 142 41 187 65 175 172 306 294
359 67 28 70 32 70 66 0 19 -6 36 -15 41 -8 4 -40 19 -71 34 -102 47 -201 164
-259 305 -29 71 -60 191 -60 234 l0 26 485 0 c381 0 485 -3 485 -12z"/>
<path d="M1160 1925 c-17 -21 40 -124 107 -190 165 -164 372 -133 514 76 45
67 58 107 38 120 -8 5 -156 9 -330 9 -265 0 -319 -2 -329 -15z"/>
<path d="M1395 1111 c-84 -22 -168 -103 -151 -147 8 -20 478 -21 495 -1 19 24
-38 100 -95 127 -53 25 -190 37 -249 21z"/>
</g>
</g>
</svg>
