<?xml version="1.0" encoding="utf-8"?>
<!-- Generator: Adobe Illustrator 15.0.0, SVG Export Plug-In  -->
<!DOCTYPE svg PUBLIC "-//W3C//DTD SVG 1.1//EN" "http://www.w3.org/Graphics/SVG/1.1/DTD/svg11.dtd" [
	<!ENTITY ns_flows "http://ns.adobe.com/Flows/1.0/">
]>
<svg version="1.1"
	xmlns="http://www.w3.org/2000/svg" xmlns:xlink="http://www.w3.org/1999/xlink" xmlns:a="http://ns.adobe.com/AdobeSVGViewerExtensions/3.0/"
	x="0px" y="0px" width="92px" height="92px" viewBox="-3.1 -2.67 92 92" enable-background="new -3.1 -2.67 92 92"
	xml:space="preserve">
<defs>
</defs>
<g id="XMLID_3_">
	<g>
		<path fill="#FFFFFF" d="M43.33,1.5c23.11,0,41.839,18.73,41.839,41.83c0,23.1-18.729,41.83-41.839,41.83
			c-23.1,0-41.83-18.73-41.83-41.83C1.5,20.23,20.23,1.5,43.33,1.5z"/>
	</g>
	<g>
		<path fill="none" stroke="#000000" stroke-width="3" stroke-miterlimit="10" d="M85.169,43.33c0,23.1-18.729,41.83-41.839,41.83
			c-23.1,0-41.83-18.73-41.83-41.83C1.5,20.23,20.23,1.5,43.33,1.5C66.44,1.5,85.169,20.23,85.169,43.33z"/>
	</g>
</g>
    <g id="XMLID_2_">
        <g transform="translate(-2.500000,88.000000) scale(0.030667,-0.030667)"
            fill="#000000" stroke="none">
            <path d="M1437 2156 c-76 -28 -116 -92 -117 -187 l0 -56 -59 -37 c-104 -64
            -170 -160 -197 -285 -8 -41 -14 -128 -14 -233 l0 -168 445 0 445 0 0 178 c0
            188 -11 258 -51 337 -35 67 -90 126 -156 169 l-63 40 0 57 c0 95 -29 145 -105
            180 -47 22 -76 23 -128 5z"/>
            <path d="M935 1075 c-36 -36 -65 -73 -65 -82 0 -9 12 -30 27 -45 l27 -28 198
            0 c179 0 198 -2 198 -17 0 -9 9 -36 21 -60 58 -120 240 -125 306 -8 13 22 23
            50 23 63 l0 22 198 0 198 0 27 28 c15 15 27 37 27 48 0 11 -28 47 -63 82 l-63
            62 -497 0 -497 0 -65 -65z"/>
        </g>
    </g>
</svg>
