<?xml version="1.0" encoding="UTF-8" standalone="no"?>
<!-- Created with Inkscape (http://www.inkscape.org/) -->

<svg
   width="14.88604mm"
   height="14.022919mm"
   viewBox="0 0 14.88604 14.022919"
   version="1.1"
   id="svg5"
   xml:space="preserve"
   xmlns:inkscape="http://www.inkscape.org/namespaces/inkscape"
   xmlns:sodipodi="http://sodipodi.sourceforge.net/DTD/sodipodi-0.dtd"
   xmlns="http://www.w3.org/2000/svg"
   xmlns:svg="http://www.w3.org/2000/svg"><sodipodi:namedview
     id="namedview7"
     pagecolor="#ffffff"
     bordercolor="#000000"
     borderopacity="0.25"
     inkscape:showpageshadow="2"
     inkscape:pageopacity="0.0"
     inkscape:pagecheckerboard="0"
     inkscape:deskcolor="#d1d1d1"
     inkscape:document-units="mm"
     showgrid="false" /><defs
     id="defs2" /><g
     inkscape:label="Layer 1"
     inkscape:groupmode="layer"
     id="layer1"
     transform="translate(-66.923921,-102.79045)"><g
       class="currentLayer"
       id="g187"
       transform="matrix(0.26458333,0,0,0.26458333,66.51635,102.55342)"><title
         id="title182">Layer 1</title><circle
         class="frame"
         r="25"
         style="fill:#ffffff;stroke:#000000;stroke-width:3"
         cy="27.395855"
         cx="28.040436"
         id="svg_2" /><g
         class="node"
         fill="#ffffff"
         id="svg_1"><path
           d="M 40.355553,29.972215 V 17.11666 q 0,-0.201733 -0.146355,-0.348089 -0.146356,-0.146355 -0.348089,-0.146355 H 15.138887 q -0.201733,0 -0.348088,0.146355 -0.146356,0.146356 -0.146356,0.348089 v 12.855555 q 0,0.201734 0.146356,0.348089 0.146355,0.146356 0.348088,0.146356 h 24.722222 q 0.201733,0 0.348089,-0.146356 0.146355,-0.146355 0.146355,-0.348089 z M 42.333331,17.11666 v 16.811111 q 0,1.020533 -0.725844,1.746378 -0.725845,0.725844 -1.746378,0.725844 h -8.405555 q 0,0.571578 0.247222,1.196555 0.247222,0.624978 0.494444,1.097667 0.247223,0.472689 0.247223,0.672445 0,0.401488 -0.292712,0.696177 -0.292711,0.294689 -0.696177,0.292711 h -7.911111 q -0.401489,0 -0.696178,-0.292711 -0.294689,-0.292711 -0.292711,-0.696177 0,-0.215578 0.247222,-0.680356 0.247222,-0.464778 0.494445,-1.081844 0.247222,-0.617067 0.247222,-1.204467 h -8.405556 q -1.020533,0 -1.746377,-0.725844 -0.725845,-0.725845 -0.725845,-1.746378 V 17.11666 q 0,-1.020533 0.725845,-1.746378 0.725844,-0.725844 1.746377,-0.725844 h 24.722222 q 1.020533,0 1.746378,0.725844 0.725844,0.725845 0.725844,1.746378 z"
           id="svg_3"
           class=""
           fill="#000000" /></g></g><g
       class="currentLayer"
       id="g206"
       transform="matrix(0.14075626,0,0,0.14075626,74.133051,102.98925)"><title
         id="title200">Layer 1</title><circle
         class="frame"
         r="25"
         style="fill:#ffffff;stroke:#000000;stroke-width:3"
         cy="27.395855"
         cx="28.040436"
         id="svg_2-4" /><g
         transform="matrix(0.1,0,0,-0.1,0,300)"
         fill="#000000"
         stroke="none"
         id="svg_1-0"
         class="selected"><path
           d="m 110.58195,2752.2318 v -122.7682 h 62.5877 62.5877 v -31.2938 -31.2938 h 45.73716 45.73717 v 31.2938 31.2938 h 61.38408 61.38409 V 2752.2318 2875 H 280.2909 110.58195 Z m 62.5877,62.5877 v -31.2938 H 157.52273 141.8758 v 31.2938 31.2939 h 15.64693 15.64692 z m 62.5877,0 v -31.2938 H 220.11042 204.4635 v 31.2938 31.2939 h 15.64692 15.64693 z m 60.18048,0 v -31.2938 H 280.2909 264.64398 v 29.6088 c 0,16.3691 0.72216,30.5717 1.68505,31.2938 0.72217,0.9629 7.94382,1.6851 15.64693,1.6851 h 13.96187 z m 62.58769,0 v -31.2938 H 342.8786 327.23168 v 31.2938 31.2939 h 15.64692 15.64692 z m 62.10626,-0.4814 0.72216,-30.8124 H 405.4663 389.81937 v 31.2938 31.5346 l 15.16548,-0.7222 14.92476,-0.7221 z"
           id="path203" /></g></g></g></svg>
