<svg version="1.1" id="Layer_1" xmlns="http://www.w3.org/2000/svg" x="0" y="0" viewBox="0 0 740.1 149.8" xml:space="preserve"><style>.st0{fill-rule:evenodd;clip-rule:evenodd}.st0,.st1{fill:#fff}</style><path class="st0" d="M158.4 82V53.3l-23.3-7.2V59l-18.5-6.9V39.2L93.4 28.4 70.1 39.2v12.9L51.6 59V46.1l-23.2 7.2V82l65-24.9z"/><path class="st0" d="M59.2 93.9L93.4 107l34.2-13.1-9.9-3.8-13.1 5-15.4-5.9 28.6-10.9 40.7 15.6-65 24.9-65-24.9 65-24.9 15.4 5.9-2.8 1.1c-15.8 6-31.3 11.9-46.9 17.9z"/><path class="st1" d="M209.9 70.4h-7.8V67h11.7v9.2c-3.7 2.2-7.7 3.3-12 3.3-3.9 0-7-.9-9.4-2.8-3.1-2.3-4.6-5.6-4.6-9.8 0-3.9 1.4-7 4.1-9.3 2.6-2.2 6-3.3 10.3-3.3 1.4 0 2.7.1 3.9.4 1.2.2 2.6.7 4.1 1.3.8.3 1.5.7 2.1 1.2l-1.5 3.8c-1.4-1-2.9-1.6-4.5-2-1.6-.4-3-.6-4.3-.6-2.6 0-4.8.7-6.5 2.1-2 1.6-3 3.8-3 6.4 0 2.6 1 4.6 2.9 6.2 1.7 1.4 4 2.2 6.9 2.2 1.4 0 2.7-.2 4-.5 1.3-.3 2.5-.7 3.6-1.2v-3.2zm15.6-2v6.7H243v4h-22.2V54.8h21.8v4h-17.1v5.8h11.7v3.9l-11.7-.1zm35-14.1c4.2 0 7.5 1.1 9.9 3.4 2.6 2.4 3.9 5.5 3.9 9.3 0 2.3-.6 4.5-1.9 6.5-2.4 3.9-6.4 5.9-11.9 5.9-4.1 0-7.4-1.1-9.9-3.4-1.3-1.2-2.3-2.7-3-4.4-.6-1.5-.9-3.1-.9-4.7 0-2.4.6-4.7 1.9-6.7 2.4-3.8 6.3-5.8 11.9-5.9zm0 4.1c-2.4 0-4.4.7-6 2.1-1.9 1.6-2.9 3.8-2.9 6.4s1 4.8 2.9 6.4c1.6 1.4 3.6 2.1 6 2.1s4.4-.7 6-2.1c1-.8 1.7-1.8 2.2-3 .5-1.1.7-2.2.7-3.3 0-2.8-1-4.9-2.9-6.5-1.6-1.3-3.6-2-6-2.1zm24 10.8v9.9h-4.7V54.8h13.8c1.8 0 3.3.1 4.4.3s2 .6 2.8 1.1c.9.6 1.5 1.5 2 2.5.4 1 .6 2.1.6 3.3 0 4-2.3 6.3-6.8 6.9l7 10.1h-5.2l-6.9-9.9-7 .1zm0-4h8.5c1.2 0 2.1 0 2.6-.1s1-.2 1.5-.4c1-.5 1.5-1.4 1.5-2.6 0-1.3-.5-2.2-1.5-2.6-.5-.2-.9-.4-1.5-.5s-1.4-.1-2.6-.1h-8.5v6.3zm45.3 5.2h-7.9V67h11.7v9.2c-3.7 2.2-7.7 3.3-12 3.3-3.9 0-7-.9-9.5-2.8-3.1-2.3-4.6-5.6-4.6-9.8 0-3.9 1.4-7 4.1-9.3 2.6-2.2 6-3.3 10.3-3.3 1.4 0 2.7.1 3.9.4 1.2.2 2.6.7 4.1 1.3.8.3 1.5.7 2.1 1.2l-1.5 3.8c-1.4-1-2.9-1.6-4.5-2-1.6-.4-3-.6-4.3-.6-2.6 0-4.8.7-6.5 2.1-2 1.6-3 3.8-3 6.4 0 2.6 1 4.6 2.9 6.2 1.7 1.4 4 2.2 6.9 2.2 1.4 0 2.7-.2 4-.5 1.3-.3 2.5-.7 3.6-1.2l.2-3.2zm10.8-15.6h4.7v24.3h-4.7V54.8zm28.7 18.1h-11.4l-3.1 6.2h-4.4l11.3-24.3h4.2l11.6 24.3h-5.1l-3.1-6.2zm-1.3-3.3l-4.4-8.7-4.4 8.7h8.8zm45.9 1.9l2 3.4c-.5.5-1.2 1-2.2 1.6-2 1.2-3.7 2-5.1 2.4-1.4.4-3 .6-4.9.6-3.8 0-6.9-.9-9.3-2.7-1.4-1.1-2.5-2.4-3.4-3.9-1-1.8-1.4-3.8-1.4-5.9 0-3 .8-5.5 2.5-7.7 2.5-3.3 6.4-4.9 11.5-4.9 1.9 0 3.5.2 4.9.6 1.4.4 3.1 1.2 5.1 2.4 1 .5 1.7 1.1 2.2 1.6l-2 3.4c-1-1-2-1.8-2.8-2.2-2.1-1.2-4.4-1.8-6.8-1.8-2.9 0-5.1.7-6.9 2.1-2 1.6-3 3.7-3 6.4 0 2.6 1 4.7 3 6.4 1.7 1.4 4 2.1 6.9 2.1 2.4 0 4.7-.6 6.8-1.8.9-.4 1.8-1.1 2.9-2.1zm19.8-2.6v10.2H429V68.9l-9.8-14.2h5.6l6.6 9.6 6.8-9.6h5.3l-9.8 14.2zm33.8-2.5c3 1 4.6 2.9 4.6 5.7 0 2.2-.8 3.9-2.3 5.2-.8.7-1.7 1.1-2.7 1.4-1 .3-2.3.4-3.9.4H448V54.8h15c1.6 0 2.8.1 3.7.4.9.2 1.7.6 2.4 1.2 1.4 1.1 2.1 2.7 2.1 4.9.1 2.3-1.2 4-3.7 5.1zm-14.7-1.9h9.6c1.5 0 2.5-.2 3.1-.6.7-.5 1-1.2 1-2.2 0-1-.3-1.8-1-2.2-.7-.4-1.7-.7-3.2-.7h-9.6v5.7h.1zm0 10.6h9.3c1.7 0 3-.2 3.8-.7.9-.5 1.4-1.4 1.4-2.6s-.5-2.1-1.4-2.6c-.8-.5-2-.7-3.8-.7h-9.3v6.6zm29.4-6.7v6.7h17.5v4h-22.2V54.8h21.8v4h-17.1v5.8h11.7v3.9l-11.7-.1zm27.7.8v9.9h-4.7V54.8H519c1.8 0 3.3.1 4.3.3 1.1.2 2 .6 2.8 1.1.9.6 1.5 1.5 2 2.5.4 1 .6 2.1.6 3.3 0 4-2.3 6.3-6.8 6.9l7 10.1h-5.2l-6.8-9.9-7 .1zm0-4h8.5c1.2 0 2.1 0 2.6-.1s1-.2 1.5-.4c1-.5 1.5-1.4 1.5-2.6 0-1.3-.5-2.2-1.5-2.6-.5-.2-.9-.4-1.5-.5s-1.4-.1-2.7-.1h-8.5l.1 6.3zm56.5 6.3l2 3.4c-.5.5-1.2 1-2.2 1.6-2 1.2-3.7 2-5.1 2.4-1.4.4-3 .6-4.9.6-3.8 0-6.9-.9-9.3-2.7-1.4-1.1-2.5-2.4-3.3-3.9-1-1.8-1.4-3.8-1.4-5.9 0-3 .8-5.5 2.5-7.7 2.5-3.3 6.4-4.9 11.5-4.9 1.9 0 3.5.2 4.9.6 1.4.4 3.1 1.2 5.1 2.4 1 .5 1.7 1.1 2.2 1.6l-2 3.4c-1-1-2-1.8-2.7-2.2-2.1-1.2-4.4-1.8-6.8-1.8-2.8 0-5.1.7-6.8 2.1-2 1.6-3 3.7-3 6.4 0 2.6 1 4.7 3 6.4 1.7 1.4 4 2.1 6.8 2.1 2.4 0 4.7-.6 6.8-1.8.7-.4 1.6-1.1 2.7-2.1zm12.8-3.1v6.7h17.5v4h-22.2V54.8h21.8v4h-17.1v5.8h11.7v3.9l-11.7-.1zm27.3-5.9v16.7h-4.3V54.8h4.3l16 16.3V54.8h4.3v24.3H623l-16.5-16.6zm38.6-3.7v20.3h-4.7V58.8H631v-4h23.6v4h-9.5zm18.2 9.6v6.7h17.5v4h-22.2V54.8h21.8v4h-17.1v5.8H675v3.9l-11.7-.1zm27.8.8v9.9h-4.7V54.8h13.8c1.8 0 3.3.1 4.3.3 1.1.2 2 .6 2.8 1.1.9.6 1.5 1.5 2 2.5.4 1 .6 2.1.6 3.3 0 4-2.3 6.3-6.8 6.9l7 10.1h-5.2l-6.9-9.9h-6.9v.1zm0-4h8.5c1.2 0 2.1 0 2.6-.1s1-.2 1.5-.4c1-.5 1.5-1.4 1.5-2.6 0-1.3-.5-2.2-1.5-2.6-.5-.2-.9-.4-1.5-.5s-1.4-.1-2.7-.1H691l.1 6.3z"/><path fill-rule="evenodd" clip-rule="evenodd" fill="#fff" d="M187.7 90.9v3H710v-3z"/><text id="text29" transform="translate(544 119.088)" class="st1" font-size="24" font-family="ArialNarrow">CYBER RANGE</text></svg>