<?xml version="1.0" encoding="utf-8"?>
<!-- Generator: Adobe Illustrator 15.0.0, SVG Export Plug-In  -->
<!DOCTYPE svg PUBLIC "-//W3C//DTD SVG 1.1//EN" "http://www.w3.org/Graphics/SVG/1.1/DTD/svg11.dtd" [
	<!ENTITY ns_flows "http://ns.adobe.com/Flows/1.0/">
]>
<svg version="1.1"
	xmlns="http://www.w3.org/2000/svg" xmlns:xlink="http://www.w3.org/1999/xlink" xmlns:a="http://ns.adobe.com/AdobeSVGViewerExtensions/3.0/"
	x="0px" y="0px" width="92px" height="92px" viewBox="-3.1 -2.67 92 92" enable-background="new -3.1 -2.67 92 92"
	xml:space="preserve">
<defs>
</defs>
<g id="XMLID_3_">
	<g>
		<path fill="#FFFFFF" d="M43.33,1.5c23.11,0,41.839,18.73,41.839,41.83c0,23.1-18.729,41.83-41.839,41.83
			c-23.1,0-41.83-18.73-41.83-41.83C1.5,20.23,20.23,1.5,43.33,1.5z"/>
	</g>
	<g>
		<path fill="none" stroke="#000000" stroke-width="3" stroke-miterlimit="10" d="M85.169,43.33c0,23.1-18.729,41.83-41.839,41.83
			c-23.1,0-41.83-18.73-41.83-41.83C1.5,20.23,20.23,1.5,43.33,1.5C66.44,1.5,85.169,20.23,85.169,43.33z"/>
	</g>
</g>
    <g id="XMLID_2_">
        <g transform="translate(-2.500000,88.000000) scale(0.030667,-0.030667)"
            fill="#000000" stroke="none">
            <path d="M1023 2210 c-22 -9 -23 -14 -23 -144 l0 -135 43 18 42 18 3 76 3 77
            479 0 480 0 0 -419 0 -419 -24 -29 c-30 -36 -97 -53 -206 -53 -55 0 -83 -4
            -93 -14 -10 -10 -16 -49 -19 -133 -5 -122 -14 -155 -52 -185 -19 -16 -50 -18
            -293 -18 l-273 0 0 84 c0 83 0 84 -27 94 -16 5 -36 13 -46 17 -16 7 -17 -2
            -15 -136 l3 -144 325 -3 c179 -1 339 0 356 3 49 9 112 63 274 237 113 122 153
            172 165 206 13 39 15 118 15 519 l0 473 -26 10 c-32 13 -1060 12 -1091 0z"/>
            <path d="M1063 1870 c-24 -10 -43 -22 -43 -25 0 -3 7 -35 16 -71 15 -59 15
            -67 1 -81 -13 -14 -22 -13 -82 2 -56 14 -70 14 -80 3 -19 -20 -44 -93 -37
            -105 4 -5 33 -26 65 -46 31 -20 57 -44 57 -52 0 -9 -21 -29 -47 -45 -94 -57
            -89 -49 -68 -108 10 -28 24 -53 31 -56 7 -3 40 2 75 10 35 8 69 12 77 9 14 -5
            14 -9 -3 -125 l-7 -45 51 -23 c28 -13 56 -20 62 -17 6 4 26 32 46 62 45 70 65
            69 111 -9 19 -32 40 -58 47 -58 7 0 35 9 60 20 l48 20 -7 43 c-3 23 -9 57 -12
            76 -10 53 11 63 90 41 35 -10 68 -15 73 -11 13 8 43 78 43 100 0 9 -25 32 -55
            51 -82 52 -83 69 -6 112 72 41 75 46 49 107 -21 52 -22 53 -57 47 -100 -16
            -129 -18 -136 -7 -4 7 1 41 10 76 10 35 15 70 12 78 -7 18 -91 51 -110 44 -8
            -3 -29 -31 -47 -62 -42 -73 -61 -71 -108 8 -39 64 -51 68 -119 37z m228 -265
            c120 -63 73 -245 -64 -245 -44 0 -53 4 -88 39 -35 35 -39 44 -39 89 0 40 5 57
            27 82 43 51 106 65 164 35z"/>
        </g>
    </g>
</svg>
